<svg width="133" height="51" viewBox="0 0 133 51" fill="none" xmlns="http://www.w3.org/2000/svg">
<g clip-path="url(#clip0_74_546)">
<path d="M0 4.9102V0.77446C0 0.645357 0.106774 0.538513 0.235792 0.538513H19.1659C19.2949 0.538513 19.4017 0.645357 19.4017 0.77446V4.91465C19.4017 5.04375 19.2949 5.15059 19.1659 5.15059H13.191C13.062 5.15059 12.9552 5.25744 12.9552 5.38654V13.5601C10.7752 13.9874 8.60863 14.4415 6.44646 14.9179V5.38654C6.44646 5.25744 6.33969 5.15059 6.21067 5.15059H0.235792C0.106774 5.15059 0 5.04375 0 4.91465V4.9102ZM27.1695 11.1561C27.3074 9.07264 27.5921 7.55012 27.9302 6.58408C28.5531 4.79445 29.5763 3.93525 30.9199 3.93525C32.2635 3.93525 33.2867 4.79445 33.9095 6.58408C34.1943 7.39876 34.439 8.6052 34.5947 10.2034C36.8102 9.94965 39.0347 9.72261 41.2636 9.52228C40.8454 6.81557 39.9912 4.86123 38.661 3.2007C37.2062 1.37991 34.5235 -0.000156339 30.9243 -0.000156339C27.3252 -0.000156339 24.6425 1.37991 23.1877 3.2007C21.4571 5.36873 20.5272 8.03537 20.3226 12.2201C22.596 11.8372 24.8827 11.4855 27.1784 11.1561H27.1695ZM95.4334 9.87842V4.57631C95.4334 4.44721 95.5402 4.34036 95.6692 4.34036H97.4577C98.8191 4.34036 99.7978 4.41605 100.385 4.95471C100.986 5.51119 101.373 6.42827 101.373 8.12886C101.373 9.17504 101.221 9.9452 100.914 10.5061C102.801 10.7376 104.678 10.9914 106.551 11.2629C107.112 10.3993 107.454 9.30859 107.454 7.87511C107.454 5.6492 106.903 3.21405 104.625 1.80728C102.925 0.765556 101.195 0.534062 98.9347 0.534062H89.7566C89.6276 0.534062 89.5208 0.640905 89.5208 0.770008V9.3264C91.4962 9.49112 93.467 9.67364 95.429 9.87842H95.4334ZM66.4978 8.38261C67.9748 8.38261 69.4518 8.39597 70.9244 8.41823C71.0534 7.67032 71.2092 7.06042 71.3738 6.57963C71.9966 4.79 73.0199 3.9308 74.3634 3.9308C75.707 3.9308 76.7302 4.79 77.3531 6.57963C77.531 7.09604 77.7001 7.77271 77.8336 8.60966C80.0981 8.69869 82.3581 8.81889 84.6093 8.9658C84.1644 6.53956 83.3369 4.74103 82.1001 3.19625C80.6453 1.37545 77.9626 -0.00460815 74.3634 -0.00460815C70.7643 -0.00460815 68.0816 1.37545 66.6268 3.19625C65.4923 4.61638 64.7004 6.25464 64.2333 8.39152C64.9896 8.38706 65.7459 8.38261 66.5022 8.38261H66.4978ZM45.6057 9.16168C47.6878 9.00587 49.7743 8.87231 51.8653 8.76547L48.8 0.752201C48.7511 0.623098 48.6265 0.534062 48.4842 0.534062H42.3402C42.1712 0.534062 42.0555 0.707682 42.1222 0.863496L45.6057 9.16168ZM63.2234 0.863496C63.2901 0.707682 63.1744 0.534062 63.0054 0.534062H58.1116C57.9737 0.534062 57.8491 0.618646 57.7957 0.747749L54.7171 8.63191C56.4833 8.55623 58.2539 8.49836 60.0291 8.45829L63.2234 0.863496ZM118.523 13.2663C118.572 10.0699 118.928 7.8573 119.369 6.58408C119.991 4.79445 121.015 3.93525 122.358 3.93525C123.702 3.93525 124.725 4.79445 125.348 6.58408C125.824 7.95969 126.202 10.4349 126.202 14.0631C126.202 14.3258 126.202 14.584 126.198 14.8333C128.453 15.3274 130.7 15.8528 132.938 16.4048C132.987 15.6747 133.009 14.8956 133.009 14.0631C133.009 8.78328 132.075 5.66701 130.104 3.19625C128.649 1.37545 125.966 -0.00460815 122.367 -0.00460815C118.768 -0.00460815 116.085 1.37545 114.63 3.19625C112.922 5.33757 111.992 7.96414 111.774 12.0643C114.039 12.4382 116.29 12.8344 118.537 13.2618L118.523 13.2663Z" fill="black"/>
<path d="M126.189 14.8379C128.444 15.3321 130.691 15.8574 132.929 16.4094C132.68 20.3137 131.754 22.8556 130.09 24.9346C128.635 26.7554 125.953 28.1355 122.354 28.1355C118.754 28.1355 116.072 26.7554 114.617 24.9346C112.642 22.4639 111.712 19.3476 111.712 14.0678C111.712 13.3644 111.73 12.701 111.761 12.0689C114.025 12.4428 116.276 12.8391 118.523 13.2664C118.523 13.5291 118.514 13.7917 118.514 14.0678C118.514 17.696 118.888 20.1756 119.368 21.5468C119.991 23.3364 121.015 24.1956 122.358 24.1956C123.702 24.1956 124.725 23.3364 125.348 21.5468C125.788 20.2736 126.144 18.0477 126.193 14.8379H126.189ZM78.2027 14.0678C78.2027 17.696 77.829 20.1756 77.3485 21.5468C76.7257 23.3364 75.7024 24.1956 74.3589 24.1956C73.0153 24.1956 71.9921 23.3364 71.3692 21.5468C70.8932 20.1712 70.515 17.696 70.515 14.0678C70.515 11.6994 70.6752 9.82517 70.9199 8.42285C69.4473 8.40059 67.9702 8.38724 66.4932 8.38724C65.7369 8.38724 64.9806 8.38724 64.2243 8.39614C63.8817 9.97208 63.7126 11.824 63.7126 14.0633C63.7126 19.3432 64.6469 22.4594 66.6178 24.9302C68.0726 26.751 70.7553 28.131 74.3544 28.131C77.9536 28.131 80.6363 26.751 82.0911 24.9302C84.0664 22.4594 84.9962 19.3432 84.9962 14.0633C84.9962 12.0867 84.8672 10.4173 84.6003 8.96597C82.3491 8.81906 80.0891 8.70332 77.8246 8.60983C78.0515 9.98989 78.1938 11.8018 78.1938 14.0589L78.2027 14.0678ZM100.919 10.5063C102.805 10.7378 104.683 10.9915 106.556 11.2631C105.959 12.1802 105.114 12.8346 104.153 13.351C104.055 13.4044 104.06 13.5469 104.162 13.5959C106.533 14.6465 108.135 16.4005 108.135 19.962C108.135 22.2769 107.641 24.8812 105.274 26.3459C103.508 27.4321 101.631 27.5924 99.2816 27.5924H89.7654C89.6364 27.5924 89.5296 27.4855 89.5296 27.3564V9.33102C91.505 9.49574 93.4758 9.67826 95.4378 9.88305V11.6237C95.4378 11.7528 95.5446 11.8597 95.6736 11.8597H97.5688C99.2594 11.8597 100.358 11.5391 100.923 10.5063H100.919ZM102.062 19.8596C102.062 16.9347 101.101 15.6615 98.2139 15.6615H95.6736C95.5446 15.6615 95.4378 15.7683 95.4378 15.8975V23.5457C95.4378 23.6748 95.5446 23.7816 95.6736 23.7816H97.6266C99.2327 23.7816 100.274 23.6792 101.039 22.9313C101.697 22.2903 102.062 21.44 102.062 19.8551V19.8596ZM34.7592 14.0633C34.7592 17.6915 34.3855 20.1712 33.905 21.5424C33.2821 23.332 32.2589 24.1912 30.9153 24.1912C29.5717 24.1912 28.5485 23.332 27.9257 21.5424C27.4496 20.1667 27.0715 17.6915 27.0715 14.0633C27.0715 12.9949 27.1026 12.0288 27.1649 11.1563C24.8693 11.4812 22.587 11.8374 20.3091 12.2203C20.2824 12.8034 20.2646 13.4178 20.2646 14.0633C20.2646 19.3432 21.1989 22.4594 23.1698 24.9302C24.6246 26.751 27.3073 28.131 30.9064 28.131C34.5056 28.131 37.1883 26.751 38.6431 24.9302C40.6184 22.4594 41.5482 19.3432 41.5482 14.0633C41.5482 12.336 41.4459 10.8402 41.2412 9.518C39.0123 9.71833 36.7879 9.94537 34.5723 10.1991C34.6791 11.2987 34.7414 12.5808 34.7414 14.0589L34.7592 14.0633ZM6.44634 27.3564C6.44634 27.4855 6.55312 27.5924 6.68214 27.5924H12.7148C12.8439 27.5924 12.9506 27.4855 12.9506 27.3564V13.5602C10.7707 13.9876 8.60406 14.4417 6.44189 14.9181V27.3609L6.44634 27.3564ZM49.4984 18.4483C49.5473 18.5641 49.574 18.6887 49.574 18.8134V27.3564C49.574 27.4855 49.6808 27.5924 49.8098 27.5924H55.6735C55.8025 27.5924 55.9093 27.4855 55.9093 27.3564V18.4483C55.9093 18.3237 55.936 18.199 55.9849 18.0833L60.0289 8.46292C58.2538 8.50298 56.4832 8.56086 54.717 8.63654L53.3778 12.0689C53.3333 12.1846 53.1687 12.1846 53.1243 12.0689L51.8652 8.77455C49.7742 8.88139 47.6877 9.01494 45.6056 9.17076L49.4984 18.4528V18.4483Z" fill="#0093D7"/>
<path d="M9.4139 47.5098H6.45093V36.5494H9.29823C11.8563 36.5494 13.3067 37.4665 13.3067 39.3273C13.3067 40.6807 12.4214 41.5666 10.8954 41.856V41.8871C12.4658 42.0741 13.538 43.0223 13.538 44.5048C13.538 46.7307 11.5627 47.5142 9.4139 47.5142V47.5098ZM9.09358 37.8271H7.94576V41.2416H8.8044C10.317 41.2416 11.7407 41.0814 11.7407 39.5099C11.7407 38.201 10.6507 37.8226 9.09803 37.8226L9.09358 37.8271ZM8.77326 42.4792H7.94576V46.2588H9.12472C11.0289 46.2588 11.972 45.6934 11.972 44.398C11.972 43.1025 10.971 42.4792 8.7777 42.4792H8.77326Z" fill="#0093D7"/>
<path d="M19.335 46.4503C20.2515 46.4503 20.9455 46.2188 21.6751 45.8537L21.7196 47.2071C20.9945 47.541 20.1937 47.7012 19.2371 47.7012C16.5767 47.7012 15.0552 46.0897 15.0552 43.4408C15.0552 40.792 16.5945 39.314 18.8634 39.314C20.9678 39.314 22.3069 40.5917 22.3069 43.285C22.3069 43.4453 22.2935 43.7079 22.2802 43.8682H16.5545C16.6256 45.4976 17.7156 46.4547 19.3439 46.4547L19.335 46.4503ZM18.8101 40.4448C17.6311 40.4448 16.7057 41.2862 16.5856 42.7285H20.8299C20.8299 41.1882 19.989 40.4448 18.8101 40.4448Z" fill="#0093D7"/>
<path d="M24.8561 51C24.607 51 24.26 50.9689 23.9397 50.8709L24.042 49.6956C24.26 49.7535 24.4913 49.8114 24.7405 49.8114C25.6124 49.8114 25.9773 49.3484 26.4844 47.8615L23.4636 39.501H25.0741L26.6846 44.3579C26.8581 44.8521 27.1206 45.7513 27.2674 46.3078H27.2986C27.4587 45.7558 27.7346 44.8253 27.8947 44.3579L29.5364 39.501H31.0312L28.1839 47.4386C27.2096 50.1408 26.4844 51 24.8561 51Z" fill="#0093D7"/>
<path d="M35.8403 47.7012C33.4735 47.7012 31.7295 45.9695 31.7295 43.5566C31.7295 41.1437 33.429 39.3095 35.8848 39.3095C38.3406 39.3095 39.9511 41.068 39.9511 43.5566C39.9511 46.0451 38.2516 47.7012 35.8403 47.7012ZM35.8269 40.565C34.3588 40.565 33.3133 41.7847 33.3133 43.561C33.3133 45.3373 34.3454 46.4681 35.8714 46.4681C37.3974 46.4681 38.3984 45.3061 38.3984 43.561C38.3984 41.8159 37.3218 40.565 35.8269 40.565Z" fill="#0093D7"/>
<path d="M47.3629 43.5566C47.3629 41.9851 47.2028 40.5605 45.5033 40.5605C44.7203 40.5605 43.9907 41.0101 43.5858 41.6957C43.3411 42.1454 43.2077 42.7419 43.2077 43.6723V47.5098H41.7262V41.8693C41.7262 41.0279 41.7128 40.1821 41.6372 39.501H43.1053C43.132 39.8482 43.1632 40.3735 43.1632 40.7965H43.1943C43.7905 39.8794 44.707 39.314 45.8681 39.314C48.1193 39.314 48.8444 40.8098 48.8444 42.9333V47.5142H47.3629V43.561V43.5566Z" fill="#0093D7"/>
<path d="M56.8214 46.1297H56.7903C56.1674 47.1314 55.3088 47.7012 54.072 47.7012C51.9232 47.7012 50.5574 46.0585 50.5574 43.5566C50.5574 41.0546 51.981 39.3095 54.0854 39.3095C55.2643 39.3095 56.2075 39.8482 56.688 40.703H56.7191C56.688 40.2088 56.6746 39.4965 56.6746 38.713V35.6457H58.1428V45.0924C58.1428 45.9338 58.1739 46.8376 58.2317 47.5053H56.8659C56.8392 47.0824 56.8214 46.6461 56.8214 46.1253V46.1297ZM52.1456 43.5432C52.1456 45.1993 53.0443 46.4636 54.3834 46.4636C55.7226 46.4636 56.7236 45.1548 56.7236 43.5432C56.7236 41.8426 55.7359 40.5649 54.3834 40.5649C53.031 40.5649 52.1456 41.8426 52.1456 43.5432Z" fill="#0093D7"/>
<path d="M73.0955 42.497H67.8369V47.5142H66.2397V36.5539H67.8369V41.1615H73.0955V36.5539H74.6793V47.5142H73.0955V42.497Z" fill="#0093D7"/>
<path d="M80.7387 47.7012C78.3719 47.7012 76.6279 45.9695 76.6279 43.5566C76.6279 41.1437 78.3274 39.3095 80.7832 39.3095C83.239 39.3095 84.8495 41.068 84.8495 43.5566C84.8495 46.0451 83.15 47.7012 80.7387 47.7012ZM80.7254 40.565C79.2572 40.565 78.2117 41.7847 78.2117 43.561C78.2117 45.3373 79.2439 46.4681 80.7699 46.4681C82.2958 46.4681 83.2968 45.3061 83.2968 43.561C83.2968 41.8159 82.2202 40.565 80.7254 40.565Z" fill="#0093D7"/>
<path d="M86.6246 41.8693C86.6246 41.0279 86.6113 40.1821 86.5356 39.501H88.0171C88.0616 39.9061 88.075 40.4448 88.075 40.8543H88.1061C88.5688 39.9372 89.3429 39.314 90.3573 39.314C90.6642 39.314 90.9223 39.3452 91.1269 39.4297V40.8232C90.9401 40.7519 90.6642 40.6941 90.3261 40.6941C88.947 40.6941 88.1017 41.8426 88.1017 43.8905V47.5098H86.6202V41.8693H86.6246Z" fill="#0093D7"/>
<path d="M92.8308 36.4025H94.4858V38.0586H92.8308V36.4025ZM92.902 39.501H94.4146V47.5098H92.902V39.501Z" fill="#0093D7"/>
<path d="M98.2185 46.3167H103.099V47.5098H96.5635V46.2143C100.109 41.9984 100.981 40.9968 101.315 40.6629H96.7815V39.501H102.939V40.8098C99.8156 44.5315 98.6367 45.8671 98.2185 46.3212V46.3167Z" fill="#0093D7"/>
<path d="M108.273 47.7012C105.906 47.7012 104.162 45.9695 104.162 43.5566C104.162 41.1437 105.862 39.3095 108.317 39.3095C110.773 39.3095 112.384 41.068 112.384 43.5566C112.384 46.0451 110.684 47.7012 108.273 47.7012ZM108.26 40.565C106.791 40.565 105.746 41.7847 105.746 43.561C105.746 45.3373 106.778 46.4681 108.304 46.4681C109.83 46.4681 110.831 45.3061 110.831 43.561C110.831 41.8159 109.754 40.565 108.26 40.565Z" fill="#0093D7"/>
<path d="M119.506 43.5566C119.506 41.9851 119.346 40.5605 117.647 40.5605C116.864 40.5605 116.134 41.0101 115.729 41.6957C115.485 42.1454 115.351 42.7419 115.351 43.6723V47.5098H113.87V41.8693C113.87 41.0279 113.856 40.1821 113.781 39.501H115.249C115.28 39.8482 115.307 40.3735 115.307 40.7965H115.333C115.93 39.8794 116.846 39.314 118.007 39.314C120.258 39.314 120.984 40.8098 120.984 42.9333V47.5142H119.502V43.561L119.506 43.5566Z" fill="#0093D7"/>
<path d="M124.881 47.7012C124.067 47.7012 123.399 47.5721 122.714 47.3095L122.83 45.9739C123.439 46.3212 124.107 46.4948 124.778 46.4948C125.637 46.4948 126.273 46.0897 126.273 45.3907C126.273 44.7675 125.851 44.4603 124.618 43.8638C123.284 43.2227 122.772 42.6573 122.772 41.6378C122.772 40.1999 123.933 39.314 125.575 39.314C126.255 39.314 126.941 39.4431 127.421 39.6479L127.292 40.8855C126.727 40.6095 126.175 40.4937 125.593 40.4937C124.85 40.4937 124.271 40.8588 124.271 41.5132C124.271 42.1676 124.721 42.4436 125.753 42.8799C127.234 43.5343 127.773 44.2154 127.773 45.2794C127.773 46.8776 126.567 47.7057 124.881 47.7057V47.7012Z" fill="#0093D7"/>
</g>
<defs>
<clipPath id="clip0_74_546">
<rect width="133" height="51" fill="white"/>
</clipPath>
</defs>
</svg>
